<mxfile host="65bd71144e">
    <diagram id="LdCuOBAOYfYmbnlRdK3b" name="ページ1">
        <mxGraphModel dx="2396" dy="934" grid="1" gridSize="10" guides="1" tooltips="1" connect="1" arrows="1" fold="1" page="1" pageScale="1" pageWidth="827" pageHeight="1169" math="0" shadow="0">
            <root>
                <mxCell id="0"/>
                <mxCell id="1" parent="0"/>
                <mxCell id="64" value="&lt;span style=&quot;font-size: 14px&quot;&gt;結合テスト工程&lt;/span&gt;" style="rounded=1;whiteSpace=wrap;html=1;fontSize=11;align=center;verticalAlign=top;" parent="1" vertex="1">
                    <mxGeometry x="40" y="770" width="320" height="150" as="geometry"/>
                </mxCell>
                <mxCell id="62" value="&lt;span style=&quot;font-size: 14px&quot;&gt;単体テスト工程&lt;/span&gt;" style="rounded=1;whiteSpace=wrap;html=1;fontSize=11;align=center;verticalAlign=top;" parent="1" vertex="1">
                    <mxGeometry x="470" y="680" width="320" height="300" as="geometry"/>
                </mxCell>
                <mxCell id="61" value="&lt;font style=&quot;font-size: 14px&quot;&gt;実装工程&lt;/font&gt;" style="rounded=1;whiteSpace=wrap;html=1;fontSize=11;align=center;verticalAlign=top;" parent="1" vertex="1">
                    <mxGeometry x="200" y="370" width="590" height="290" as="geometry"/>
                </mxCell>
                <mxCell id="59" value="&lt;font style=&quot;font-size: 14px&quot;&gt;設計工程&lt;/font&gt;" style="rounded=1;whiteSpace=wrap;html=1;fontSize=11;align=center;verticalAlign=top;" parent="1" vertex="1">
                    <mxGeometry x="-140" y="260" width="330" height="330" as="geometry"/>
                </mxCell>
                <mxCell id="16" value="" style="edgeStyle=none;html=1;entryX=0.625;entryY=0.2;entryDx=0;entryDy=0;entryPerimeter=0;" parent="1" source="13" target="51" edge="1">
                    <mxGeometry relative="1" as="geometry">
                        <mxPoint x="150.94867405837067" y="314.82832133853026" as="targetPoint"/>
                    </mxGeometry>
                </mxCell>
                <mxCell id="65" style="edgeStyle=none;html=1;entryX=0.5;entryY=0;entryDx=0;entryDy=0;fontSize=14;" parent="1" source="13" target="47" edge="1">
                    <mxGeometry relative="1" as="geometry"/>
                </mxCell>
                <mxCell id="13" value="要求仕様書&lt;br style=&quot;font-size: 11px;&quot;&gt;・各処理" style="shape=document;whiteSpace=wrap;html=1;boundedLbl=1;fontSize=11;" parent="1" vertex="1">
                    <mxGeometry x="-90" y="160" width="120" height="80" as="geometry"/>
                </mxCell>
                <mxCell id="17" value="" style="edgeStyle=none;html=1;entryX=0.625;entryY=0.2;entryDx=0;entryDy=0;entryPerimeter=0;" parent="1" source="14" target="51" edge="1">
                    <mxGeometry relative="1" as="geometry">
                        <mxPoint x="193.12069363121327" y="317.3590207559339" as="targetPoint"/>
                    </mxGeometry>
                </mxCell>
                <mxCell id="14" value="説明資料" style="shape=document;whiteSpace=wrap;html=1;boundedLbl=1;fontSize=11;" parent="1" vertex="1">
                    <mxGeometry x="50" y="160" width="120" height="80" as="geometry"/>
                </mxCell>
                <mxCell id="19" value="処理変更仕様書" style="shape=document;whiteSpace=wrap;html=1;boundedLbl=1;" parent="1" vertex="1">
                    <mxGeometry x="50" y="490" width="120" height="80" as="geometry"/>
                </mxCell>
                <mxCell id="53" style="edgeStyle=none;html=1;entryX=0;entryY=0.5;entryDx=0;entryDy=0;fontSize=11;" parent="1" source="18" target="30" edge="1">
                    <mxGeometry relative="1" as="geometry"/>
                </mxCell>
                <mxCell id="18" value="処理変更仕様書" style="shape=document;whiteSpace=wrap;html=1;boundedLbl=1;" parent="1" vertex="1">
                    <mxGeometry x="40" y="480" width="120" height="80" as="geometry"/>
                </mxCell>
                <mxCell id="20" value="上位モジュール&lt;br&gt;詳細設計書" style="shape=document;whiteSpace=wrap;html=1;boundedLbl=1;" parent="1" vertex="1">
                    <mxGeometry x="640" y="410" width="120" height="80" as="geometry"/>
                </mxCell>
                <mxCell id="21" value="下位モジュール&lt;br&gt;詳細設計書" style="shape=document;whiteSpace=wrap;html=1;boundedLbl=1;" parent="1" vertex="1">
                    <mxGeometry x="640" y="490" width="120" height="80" as="geometry"/>
                </mxCell>
                <mxCell id="22" value="デバドラ&lt;br&gt;詳細設計書" style="shape=document;whiteSpace=wrap;html=1;boundedLbl=1;" parent="1" vertex="1">
                    <mxGeometry x="640" y="570" width="120" height="80" as="geometry"/>
                </mxCell>
                <mxCell id="32" value="" style="edgeStyle=none;html=1;fontSize=11;exitX=1;exitY=0.5;exitDx=0;exitDy=0;" parent="1" source="23" target="26" edge="1">
                    <mxGeometry relative="1" as="geometry"/>
                </mxCell>
                <mxCell id="41" style="edgeStyle=none;html=1;entryX=0;entryY=0;entryDx=0;entryDy=0;fontSize=11;exitX=1;exitY=0.5;exitDx=0;exitDy=0;" parent="1" source="23" target="40" edge="1">
                    <mxGeometry relative="1" as="geometry"/>
                </mxCell>
                <mxCell id="69" style="edgeStyle=none;html=1;entryX=0.567;entryY=-0.012;entryDx=0;entryDy=0;entryPerimeter=0;fontSize=14;exitX=0;exitY=0.75;exitDx=0;exitDy=0;" parent="1" source="23" target="47" edge="1">
                    <mxGeometry relative="1" as="geometry"/>
                </mxCell>
                <mxCell id="23" value="上位モジュール&lt;br&gt;ソースコード" style="shape=document;whiteSpace=wrap;html=1;boundedLbl=1;" parent="1" vertex="1">
                    <mxGeometry x="360" y="410" width="120" height="80" as="geometry"/>
                </mxCell>
                <mxCell id="31" value="" style="edgeStyle=none;html=1;fontSize=11;" parent="1" source="24" target="26" edge="1">
                    <mxGeometry relative="1" as="geometry"/>
                </mxCell>
                <mxCell id="42" style="edgeStyle=none;html=1;fontSize=11;exitX=1;exitY=0.5;exitDx=0;exitDy=0;entryX=0;entryY=0;entryDx=0;entryDy=0;" parent="1" source="24" target="40" edge="1">
                    <mxGeometry relative="1" as="geometry">
                        <mxPoint x="530" y="690" as="targetPoint"/>
                    </mxGeometry>
                </mxCell>
                <mxCell id="68" style="edgeStyle=none;html=1;entryX=0.567;entryY=0.013;entryDx=0;entryDy=0;entryPerimeter=0;fontSize=14;exitX=0;exitY=0.75;exitDx=0;exitDy=0;" parent="1" source="24" target="47" edge="1">
                    <mxGeometry relative="1" as="geometry"/>
                </mxCell>
                <mxCell id="24" value="下位モジュール&lt;br&gt;ソースコード" style="shape=document;whiteSpace=wrap;html=1;boundedLbl=1;" parent="1" vertex="1">
                    <mxGeometry x="360" y="490" width="120" height="80" as="geometry"/>
                </mxCell>
                <mxCell id="33" style="edgeStyle=none;html=1;entryX=0;entryY=1;entryDx=0;entryDy=0;fontSize=11;exitX=1;exitY=0.5;exitDx=0;exitDy=0;" parent="1" source="25" target="26" edge="1">
                    <mxGeometry relative="1" as="geometry"/>
                </mxCell>
                <mxCell id="43" style="edgeStyle=none;html=1;entryX=0;entryY=0;entryDx=0;entryDy=0;fontSize=11;exitX=1;exitY=0.5;exitDx=0;exitDy=0;" parent="1" source="25" target="40" edge="1">
                    <mxGeometry relative="1" as="geometry"/>
                </mxCell>
                <mxCell id="67" style="edgeStyle=none;html=1;entryX=0.583;entryY=-0.025;entryDx=0;entryDy=0;entryPerimeter=0;fontSize=14;exitX=0;exitY=0.5;exitDx=0;exitDy=0;" parent="1" source="25" target="47" edge="1">
                    <mxGeometry relative="1" as="geometry"/>
                </mxCell>
                <mxCell id="25" value="デバドラ&lt;br&gt;ソースコード" style="shape=document;whiteSpace=wrap;html=1;boundedLbl=1;" parent="1" vertex="1">
                    <mxGeometry x="360" y="570" width="120" height="80" as="geometry"/>
                </mxCell>
                <mxCell id="34" value="" style="edgeStyle=none;html=1;fontSize=11;" parent="1" source="26" target="21" edge="1">
                    <mxGeometry relative="1" as="geometry"/>
                </mxCell>
                <mxCell id="35" style="edgeStyle=none;html=1;entryX=0;entryY=0.5;entryDx=0;entryDy=0;fontSize=11;" parent="1" source="26" target="20" edge="1">
                    <mxGeometry relative="1" as="geometry"/>
                </mxCell>
                <mxCell id="36" style="edgeStyle=none;html=1;entryX=-0.017;entryY=0.588;entryDx=0;entryDy=0;entryPerimeter=0;fontSize=11;" parent="1" source="26" target="22" edge="1">
                    <mxGeometry relative="1" as="geometry"/>
                </mxCell>
                <mxCell id="26" value="実装を仕様書の&lt;br&gt;記載事項に転記" style="ellipse;whiteSpace=wrap;html=1;aspect=fixed;fontSize=9;" parent="1" vertex="1">
                    <mxGeometry x="520" y="480" width="80" height="80" as="geometry"/>
                </mxCell>
                <mxCell id="27" value="上位モジュール&lt;br&gt;単体テスト仕様書/&lt;br&gt;テスト報告書" style="shape=document;whiteSpace=wrap;html=1;boundedLbl=1;" parent="1" vertex="1">
                    <mxGeometry x="640" y="730" width="120" height="80" as="geometry"/>
                </mxCell>
                <mxCell id="28" value="下位モジュール&lt;br&gt;単体テスト仕様書/&lt;br&gt;テスト報告書" style="shape=document;whiteSpace=wrap;html=1;boundedLbl=1;" parent="1" vertex="1">
                    <mxGeometry x="640" y="810" width="120" height="80" as="geometry"/>
                </mxCell>
                <mxCell id="29" value="デバドラ&lt;br&gt;単体テスト仕様書/&lt;br&gt;テスト報告書" style="shape=document;whiteSpace=wrap;html=1;boundedLbl=1;" parent="1" vertex="1">
                    <mxGeometry x="640" y="890" width="120" height="80" as="geometry"/>
                </mxCell>
                <mxCell id="37" value="" style="edgeStyle=none;html=1;fontSize=11;" parent="1" source="30" target="24" edge="1">
                    <mxGeometry relative="1" as="geometry"/>
                </mxCell>
                <mxCell id="38" style="edgeStyle=none;html=1;entryX=0;entryY=0.5;entryDx=0;entryDy=0;fontSize=11;" parent="1" source="30" target="23" edge="1">
                    <mxGeometry relative="1" as="geometry"/>
                </mxCell>
                <mxCell id="39" style="edgeStyle=none;html=1;exitX=1;exitY=1;exitDx=0;exitDy=0;entryX=0;entryY=0.5;entryDx=0;entryDy=0;fontSize=11;" parent="1" source="30" target="25" edge="1">
                    <mxGeometry relative="1" as="geometry"/>
                </mxCell>
                <mxCell id="30" value="実装を仕様書の&lt;br&gt;記載事項に転記" style="ellipse;whiteSpace=wrap;html=1;aspect=fixed;fontSize=9;" parent="1" vertex="1">
                    <mxGeometry x="230" y="480" width="80" height="80" as="geometry"/>
                </mxCell>
                <mxCell id="44" style="edgeStyle=none;html=1;entryX=0;entryY=0.5;entryDx=0;entryDy=0;fontSize=11;" parent="1" target="27" edge="1">
                    <mxGeometry relative="1" as="geometry">
                        <mxPoint x="590" y="750" as="sourcePoint"/>
                    </mxGeometry>
                </mxCell>
                <mxCell id="45" style="edgeStyle=none;html=1;entryX=0;entryY=0.5;entryDx=0;entryDy=0;fontSize=11;exitX=1;exitY=1;exitDx=0;exitDy=0;" parent="1" source="40" target="28" edge="1">
                    <mxGeometry relative="1" as="geometry"/>
                </mxCell>
                <mxCell id="46" style="edgeStyle=none;html=1;entryX=-0.025;entryY=0.413;entryDx=0;entryDy=0;entryPerimeter=0;fontSize=11;exitX=1;exitY=1;exitDx=0;exitDy=0;" parent="1" source="40" target="29" edge="1">
                    <mxGeometry relative="1" as="geometry"/>
                </mxCell>
                <mxCell id="40" value="カバレッジ/状態遷移を通すテストを作成" style="ellipse;whiteSpace=wrap;html=1;aspect=fixed;fontSize=9;" parent="1" vertex="1">
                    <mxGeometry x="530" y="710" width="80" height="80" as="geometry"/>
                </mxCell>
                <mxCell id="47" value="結合テスト仕様書/&lt;br&gt;テスト報告書" style="shape=document;whiteSpace=wrap;html=1;boundedLbl=1;" parent="1" vertex="1">
                    <mxGeometry x="140" y="810" width="120" height="80" as="geometry"/>
                </mxCell>
                <mxCell id="52" style="edgeStyle=none;html=1;entryX=0.567;entryY=-0.062;entryDx=0;entryDy=0;entryPerimeter=0;fontSize=11;" parent="1" source="51" target="18" edge="1">
                    <mxGeometry relative="1" as="geometry"/>
                </mxCell>
                <mxCell id="55" style="edgeStyle=none;html=1;entryX=1;entryY=0.5;entryDx=0;entryDy=0;fontSize=11;" parent="1" source="51" target="54" edge="1">
                    <mxGeometry relative="1" as="geometry"/>
                </mxCell>
                <mxCell id="51" value="処理を分析する" style="ellipse;shape=cloud;whiteSpace=wrap;html=1;fontSize=11;" parent="1" vertex="1">
                    <mxGeometry x="20" y="290" width="120" height="80" as="geometry"/>
                </mxCell>
                <mxCell id="56" style="edgeStyle=none;html=1;fontSize=11;entryX=0.5;entryY=0;entryDx=0;entryDy=0;exitX=1;exitY=0.5;exitDx=0;exitDy=0;" parent="1" source="54" target="18" edge="1">
                    <mxGeometry relative="1" as="geometry">
                        <mxPoint x="120" y="470" as="targetPoint"/>
                    </mxGeometry>
                </mxCell>
                <mxCell id="54" value="QAリスト" style="shape=document;whiteSpace=wrap;html=1;boundedLbl=1;" parent="1" vertex="1">
                    <mxGeometry x="-130" y="390" width="120" height="80" as="geometry"/>
                </mxCell>
                <mxCell id="71" style="edgeStyle=none;html=1;entryX=0.5;entryY=0;entryDx=0;entryDy=0;fontSize=14;" parent="1" source="70" target="47" edge="1">
                    <mxGeometry relative="1" as="geometry"/>
                </mxCell>
                <mxCell id="70" value="パラメータ資料" style="shape=document;whiteSpace=wrap;html=1;boundedLbl=1;fontSize=11;" parent="1" vertex="1">
                    <mxGeometry x="-70" y="650" width="120" height="80" as="geometry"/>
                </mxCell>
            </root>
        </mxGraphModel>
    </diagram>
    <diagram id="zjwq4hj6SQ5fvFenVCcn" name="基本設計">
        <mxGraphModel dx="2241" dy="2503" grid="1" gridSize="10" guides="1" tooltips="1" connect="1" arrows="1" fold="1" page="1" pageScale="1" pageWidth="827" pageHeight="1169" math="0" shadow="0">
            <root>
                <mxCell id="0"/>
                <mxCell id="1" parent="0"/>
                <mxCell id="Fz8NRYDXZKEV12KApJ_M-7" value="&lt;font style=&quot;font-size: 14px&quot;&gt;基本設計工程&lt;/font&gt;" style="rounded=1;whiteSpace=wrap;html=1;fontSize=11;align=center;verticalAlign=top;fontFamily=メイリオ;" parent="1" vertex="1">
                    <mxGeometry x="170" y="550" width="1090" height="590" as="geometry"/>
                </mxCell>
                <mxCell id="Fz8NRYDXZKEV12KApJ_M-41" value="&lt;font style=&quot;font-size: 14px&quot;&gt;要求仕様分析&lt;/font&gt;" style="rounded=1;whiteSpace=wrap;html=1;fontSize=11;align=center;verticalAlign=top;fontFamily=メイリオ;" parent="1" vertex="1">
                    <mxGeometry x="560" y="590" width="150" height="510" as="geometry"/>
                </mxCell>
                <mxCell id="ifKhrk1QDVeVkpsxctIX-1" value="&lt;font style=&quot;font-size: 14px&quot;&gt;基本設計工程&lt;/font&gt;" style="rounded=1;whiteSpace=wrap;html=1;fontSize=11;align=center;verticalAlign=top;fontFamily=メイリオ;" parent="1" vertex="1">
                    <mxGeometry x="170" y="-10" width="830" height="440" as="geometry"/>
                </mxCell>
                <mxCell id="Fz8NRYDXZKEV12KApJ_M-2" style="edgeStyle=entityRelationEdgeStyle;html=1;fontSize=12;fontFamily=メイリオ;" parent="1" source="trUfkOMvnrjH_YHTkC3V-1" target="Fz8NRYDXZKEV12KApJ_M-1" edge="1">
                    <mxGeometry relative="1" as="geometry"/>
                </mxCell>
                <mxCell id="trUfkOMvnrjH_YHTkC3V-1" value="要求仕様書&lt;br style=&quot;font-size: 11px;&quot;&gt;・各処理" style="shape=document;whiteSpace=wrap;html=1;boundedLbl=1;fontSize=11;fontFamily=メイリオ;" parent="1" vertex="1">
                    <mxGeometry x="20" y="150" width="120" height="80" as="geometry"/>
                </mxCell>
                <mxCell id="Fz8NRYDXZKEV12KApJ_M-3" style="edgeStyle=entityRelationEdgeStyle;html=1;fontSize=12;fontFamily=メイリオ;" parent="1" source="c5UZFYZNsPHw-yJvNcEv-1" edge="1">
                    <mxGeometry relative="1" as="geometry">
                        <mxPoint x="370" y="220" as="targetPoint"/>
                    </mxGeometry>
                </mxCell>
                <mxCell id="c5UZFYZNsPHw-yJvNcEv-1" value="説明資料" style="shape=document;whiteSpace=wrap;html=1;boundedLbl=1;fontSize=11;fontFamily=メイリオ;" parent="1" vertex="1">
                    <mxGeometry x="20" y="240" width="120" height="80" as="geometry"/>
                </mxCell>
                <mxCell id="Fz8NRYDXZKEV12KApJ_M-4" style="edgeStyle=entityRelationEdgeStyle;html=1;entryX=0;entryY=0.5;entryDx=0;entryDy=0;fontSize=12;exitX=0.875;exitY=0.5;exitDx=0;exitDy=0;exitPerimeter=0;fontFamily=メイリオ;" parent="1" source="l_OCsW1zlduuNZUSRi5b-1" target="Fz8NRYDXZKEV12KApJ_M-1" edge="1">
                    <mxGeometry relative="1" as="geometry"/>
                </mxCell>
                <mxCell id="l_OCsW1zlduuNZUSRi5b-1" value="過去の経験則" style="ellipse;shape=cloud;whiteSpace=wrap;html=1;fontSize=11;fontFamily=メイリオ;" parent="1" vertex="1">
                    <mxGeometry x="190" y="60" width="120" height="80" as="geometry"/>
                </mxCell>
                <mxCell id="aV-XP0wnyHLBhwHJvqHf-27" style="edgeStyle=none;html=1;" edge="1" parent="1" source="WUF4oWnHrVDCfIMpZZ3E-1" target="Fz8NRYDXZKEV12KApJ_M-46">
                    <mxGeometry relative="1" as="geometry"/>
                </mxCell>
                <mxCell id="WUF4oWnHrVDCfIMpZZ3E-1" value="要件変更仕様書" style="shape=document;whiteSpace=wrap;html=1;boundedLbl=1;fontFamily=メイリオ;" parent="1" vertex="1">
                    <mxGeometry x="580" y="170" width="120" height="80" as="geometry"/>
                </mxCell>
                <mxCell id="Fz8NRYDXZKEV12KApJ_M-6" style="edgeStyle=entityRelationEdgeStyle;html=1;entryX=0;entryY=0.5;entryDx=0;entryDy=0;fontSize=12;fontFamily=メイリオ;" parent="1" source="Fz8NRYDXZKEV12KApJ_M-1" target="WUF4oWnHrVDCfIMpZZ3E-1" edge="1">
                    <mxGeometry relative="1" as="geometry"/>
                </mxCell>
                <mxCell id="Fz8NRYDXZKEV12KApJ_M-18" style="edgeStyle=entityRelationEdgeStyle;html=1;entryX=1;entryY=0.5;entryDx=0;entryDy=0;fontSize=12;exitX=0.5;exitY=1;exitDx=0;exitDy=0;fontFamily=メイリオ;" parent="1" source="Fz8NRYDXZKEV12KApJ_M-1" target="Fz8NRYDXZKEV12KApJ_M-17" edge="1">
                    <mxGeometry relative="1" as="geometry"/>
                </mxCell>
                <mxCell id="Fz8NRYDXZKEV12KApJ_M-1" value="要求仕様を分析する" style="ellipse;whiteSpace=wrap;html=1;aspect=fixed;fontSize=12;fontFamily=メイリオ;" parent="1" vertex="1">
                    <mxGeometry x="370" y="165" width="110" height="110" as="geometry"/>
                </mxCell>
                <mxCell id="Fz8NRYDXZKEV12KApJ_M-8" style="edgeStyle=entityRelationEdgeStyle;html=1;fontSize=12;fontFamily=メイリオ;" parent="1" source="Fz8NRYDXZKEV12KApJ_M-9" target="Fz8NRYDXZKEV12KApJ_M-41" edge="1">
                    <mxGeometry relative="1" as="geometry">
                        <mxPoint x="369.9999999999998" y="780" as="targetPoint"/>
                    </mxGeometry>
                </mxCell>
                <mxCell id="Fz8NRYDXZKEV12KApJ_M-9" value="要求仕様書&lt;br style=&quot;font-size: 11px;&quot;&gt;・各処理" style="shape=document;whiteSpace=wrap;html=1;boundedLbl=1;fontSize=11;fillColor=#f8cecc;strokeColor=#b85450;gradientColor=#ea6b66;fontColor=#1F1F1F;fontFamily=メイリオ;" parent="1" vertex="1">
                    <mxGeometry x="20" y="710" width="120" height="80" as="geometry"/>
                </mxCell>
                <mxCell id="Fz8NRYDXZKEV12KApJ_M-10" style="edgeStyle=entityRelationEdgeStyle;html=1;fontSize=12;entryX=0;entryY=0.5;entryDx=0;entryDy=0;fontFamily=メイリオ;" parent="1" source="Fz8NRYDXZKEV12KApJ_M-11" target="Fz8NRYDXZKEV12KApJ_M-41" edge="1">
                    <mxGeometry relative="1" as="geometry">
                        <mxPoint x="550" y="850" as="targetPoint"/>
                    </mxGeometry>
                </mxCell>
                <mxCell id="Fz8NRYDXZKEV12KApJ_M-11" value="説明資料" style="shape=document;whiteSpace=wrap;html=1;boundedLbl=1;fontSize=11;fillColor=#f8cecc;gradientColor=#ea6b66;strokeColor=#b85450;fontColor=#1F1F1F;fontFamily=メイリオ;" parent="1" vertex="1">
                    <mxGeometry x="20" y="800" width="120" height="80" as="geometry"/>
                </mxCell>
                <mxCell id="Fz8NRYDXZKEV12KApJ_M-12" style="html=1;entryX=0.5;entryY=0;entryDx=0;entryDy=0;fontSize=12;exitX=0.55;exitY=0.95;exitDx=0;exitDy=0;exitPerimeter=0;fontFamily=メイリオ;" parent="1" source="Fz8NRYDXZKEV12KApJ_M-13" target="Fz8NRYDXZKEV12KApJ_M-31" edge="1">
                    <mxGeometry relative="1" as="geometry"/>
                </mxCell>
                <mxCell id="Fz8NRYDXZKEV12KApJ_M-13" value="過去の経験則" style="ellipse;shape=cloud;whiteSpace=wrap;html=1;fontSize=11;fontFamily=メイリオ;" parent="1" vertex="1">
                    <mxGeometry x="970" y="570" width="120" height="80" as="geometry"/>
                </mxCell>
                <mxCell id="Fz8NRYDXZKEV12KApJ_M-14" value="要件変更仕様書" style="shape=document;whiteSpace=wrap;html=1;boundedLbl=1;fillColor=#dae8fc;strokeColor=#6c8ebf;gradientColor=#7ea6e0;fontColor=#000000;fontFamily=メイリオ;" parent="1" vertex="1">
                    <mxGeometry x="1190" y="780" width="120" height="80" as="geometry"/>
                </mxCell>
                <mxCell id="Fz8NRYDXZKEV12KApJ_M-20" style="html=1;fontSize=12;startArrow=classic;startFill=1;exitX=0;exitY=0.75;exitDx=0;exitDy=0;fontFamily=メイリオ;" parent="1" source="Fz8NRYDXZKEV12KApJ_M-41" target="Fz8NRYDXZKEV12KApJ_M-19" edge="1">
                    <mxGeometry relative="1" as="geometry">
                        <mxPoint x="386.75182148661065" y="819.5231177971684" as="sourcePoint"/>
                    </mxGeometry>
                </mxCell>
                <mxCell id="Fz8NRYDXZKEV12KApJ_M-17" value="ＱAリスト" style="shape=document;whiteSpace=wrap;html=1;boundedLbl=1;fontSize=11;fontFamily=メイリオ;" parent="1" vertex="1">
                    <mxGeometry x="250" y="320" width="120" height="80" as="geometry"/>
                </mxCell>
                <mxCell id="Fz8NRYDXZKEV12KApJ_M-19" value="ＱAリスト" style="shape=document;whiteSpace=wrap;html=1;boundedLbl=1;fontSize=11;fontFamily=メイリオ;" parent="1" vertex="1">
                    <mxGeometry x="220" y="1020" width="120" height="80" as="geometry"/>
                </mxCell>
                <mxCell id="Fz8NRYDXZKEV12KApJ_M-21" value="P1&lt;br&gt;上位ドメイン&lt;br&gt;分析" style="ellipse;whiteSpace=wrap;html=1;aspect=fixed;fontSize=12;fontFamily=メイリオ;" parent="1" vertex="1">
                    <mxGeometry x="590" y="630" width="90" height="90" as="geometry"/>
                </mxCell>
                <mxCell id="Fz8NRYDXZKEV12KApJ_M-22" value="P3&lt;br&gt;下位ドメインの分析" style="ellipse;whiteSpace=wrap;html=1;aspect=fixed;fontSize=12;fontFamily=メイリオ;" parent="1" vertex="1">
                    <mxGeometry x="590" y="860" width="90" height="90" as="geometry"/>
                </mxCell>
                <mxCell id="Fz8NRYDXZKEV12KApJ_M-23" value="P4&lt;br&gt;リソース&lt;br&gt;分析" style="ellipse;whiteSpace=wrap;html=1;aspect=fixed;fontSize=12;fontFamily=メイリオ;" parent="1" vertex="1">
                    <mxGeometry x="590" y="980" width="90" height="90" as="geometry"/>
                </mxCell>
                <mxCell id="Fz8NRYDXZKEV12KApJ_M-40" style="edgeStyle=none;html=1;entryX=0;entryY=0.5;entryDx=0;entryDy=0;fontSize=12;startArrow=none;startFill=0;exitX=1;exitY=0.5;exitDx=0;exitDy=0;fontFamily=メイリオ;" parent="1" source="Fz8NRYDXZKEV12KApJ_M-41" target="Fz8NRYDXZKEV12KApJ_M-37" edge="1">
                    <mxGeometry relative="1" as="geometry"/>
                </mxCell>
                <mxCell id="Fz8NRYDXZKEV12KApJ_M-24" value="P2&lt;br&gt;中位ドメイン&lt;br&gt;の分析" style="ellipse;whiteSpace=wrap;html=1;aspect=fixed;fontSize=12;fontFamily=メイリオ;" parent="1" vertex="1">
                    <mxGeometry x="590" y="750" width="90" height="90" as="geometry"/>
                </mxCell>
                <mxCell id="Fz8NRYDXZKEV12KApJ_M-29" style="edgeStyle=entityRelationEdgeStyle;html=1;fontSize=12;startArrow=none;startFill=0;fontFamily=メイリオ;" parent="1" source="Fz8NRYDXZKEV12KApJ_M-25" target="Fz8NRYDXZKEV12KApJ_M-41" edge="1">
                    <mxGeometry relative="1" as="geometry"/>
                </mxCell>
                <mxCell id="Fz8NRYDXZKEV12KApJ_M-25" value="要求変更仕様書&lt;br&gt;テンプレート" style="shape=document;whiteSpace=wrap;html=1;boundedLbl=1;fontSize=11;fontFamily=メイリオ;" parent="1" vertex="1">
                    <mxGeometry x="260" y="580" width="120" height="80" as="geometry"/>
                </mxCell>
                <mxCell id="Fz8NRYDXZKEV12KApJ_M-32" style="edgeStyle=entityRelationEdgeStyle;html=1;entryX=0;entryY=0.5;entryDx=0;entryDy=0;fontSize=12;startArrow=none;startFill=0;fontFamily=メイリオ;" parent="1" source="Fz8NRYDXZKEV12KApJ_M-31" target="Fz8NRYDXZKEV12KApJ_M-14" edge="1">
                    <mxGeometry relative="1" as="geometry"/>
                </mxCell>
                <mxCell id="Fz8NRYDXZKEV12KApJ_M-31" value="P5&lt;br&gt;有識者&lt;br&gt;レビュー" style="ellipse;whiteSpace=wrap;html=1;aspect=fixed;fontSize=12;fontFamily=メイリオ;" parent="1" vertex="1">
                    <mxGeometry x="1010" y="760" width="90" height="90" as="geometry"/>
                </mxCell>
                <mxCell id="Fz8NRYDXZKEV12KApJ_M-38" style="edgeStyle=none;html=1;entryX=0;entryY=0.5;entryDx=0;entryDy=0;fontSize=12;startArrow=none;startFill=0;fontFamily=メイリオ;" parent="1" source="Fz8NRYDXZKEV12KApJ_M-37" target="Fz8NRYDXZKEV12KApJ_M-31" edge="1">
                    <mxGeometry relative="1" as="geometry"/>
                </mxCell>
                <mxCell id="Fz8NRYDXZKEV12KApJ_M-37" value="要件変更仕様書" style="shape=document;whiteSpace=wrap;html=1;boundedLbl=1;fontFamily=メイリオ;" parent="1" vertex="1">
                    <mxGeometry x="827" y="780" width="120" height="80" as="geometry"/>
                </mxCell>
                <mxCell id="Fz8NRYDXZKEV12KApJ_M-43" style="html=1;fontSize=12;exitX=0.5;exitY=1;exitDx=0;exitDy=0;entryX=0;entryY=0.5;entryDx=0;entryDy=0;fontFamily=メイリオ;" parent="1" source="Fz8NRYDXZKEV12KApJ_M-31" target="Fz8NRYDXZKEV12KApJ_M-44" edge="1">
                    <mxGeometry relative="1" as="geometry">
                        <mxPoint x="1046" y="655.9999999999998" as="sourcePoint"/>
                        <mxPoint x="1065" y="770" as="targetPoint"/>
                    </mxGeometry>
                </mxCell>
                <mxCell id="Fz8NRYDXZKEV12KApJ_M-44" value="レビュー報告書" style="shape=document;whiteSpace=wrap;html=1;boundedLbl=1;fillColor=#dae8fc;strokeColor=#6c8ebf;gradientColor=#7ea6e0;fontColor=#000000;fontFamily=メイリオ;" parent="1" vertex="1">
                    <mxGeometry x="1190" y="910" width="120" height="80" as="geometry"/>
                </mxCell>
                <mxCell id="aV-XP0wnyHLBhwHJvqHf-28" style="edgeStyle=none;html=1;entryX=0;entryY=0.5;entryDx=0;entryDy=0;" edge="1" parent="1" source="Fz8NRYDXZKEV12KApJ_M-46" target="Fz8NRYDXZKEV12KApJ_M-47">
                    <mxGeometry relative="1" as="geometry"/>
                </mxCell>
                <mxCell id="aV-XP0wnyHLBhwHJvqHf-29" style="edgeStyle=none;html=1;entryX=0;entryY=0.5;entryDx=0;entryDy=0;" edge="1" parent="1" source="Fz8NRYDXZKEV12KApJ_M-46" target="Fz8NRYDXZKEV12KApJ_M-48">
                    <mxGeometry relative="1" as="geometry"/>
                </mxCell>
                <mxCell id="Fz8NRYDXZKEV12KApJ_M-46" value="有識者&lt;br&gt;レビュー" style="ellipse;whiteSpace=wrap;html=1;aspect=fixed;fontSize=12;fontFamily=メイリオ;" parent="1" vertex="1">
                    <mxGeometry x="800" y="155" width="90" height="90" as="geometry"/>
                </mxCell>
                <mxCell id="Fz8NRYDXZKEV12KApJ_M-47" value="要件変更仕様書" style="shape=document;whiteSpace=wrap;html=1;boundedLbl=1;fillColor=#dae8fc;strokeColor=#6c8ebf;gradientColor=#7ea6e0;fontColor=#000000;fontFamily=メイリオ;" parent="1" vertex="1">
                    <mxGeometry x="940" y="115" width="120" height="80" as="geometry"/>
                </mxCell>
                <mxCell id="Fz8NRYDXZKEV12KApJ_M-48" value="レビュー報告書" style="shape=document;whiteSpace=wrap;html=1;boundedLbl=1;fillColor=#dae8fc;strokeColor=#6c8ebf;gradientColor=#7ea6e0;fontColor=#000000;fontFamily=メイリオ;" parent="1" vertex="1">
                    <mxGeometry x="940" y="245" width="120" height="80" as="geometry"/>
                </mxCell>
                <mxCell id="aV-XP0wnyHLBhwHJvqHf-26" style="edgeStyle=none;html=1;" edge="1" parent="1" source="aV-XP0wnyHLBhwHJvqHf-25" target="Fz8NRYDXZKEV12KApJ_M-46">
                    <mxGeometry relative="1" as="geometry"/>
                </mxCell>
                <mxCell id="aV-XP0wnyHLBhwHJvqHf-25" value="過去の経験則" style="ellipse;shape=cloud;whiteSpace=wrap;html=1;fontSize=11;fontFamily=メイリオ;" vertex="1" parent="1">
                    <mxGeometry x="730" y="40" width="120" height="80" as="geometry"/>
                </mxCell>
            </root>
        </mxGraphModel>
    </diagram>
    <diagram id="TnvQrlkHF-GlpNH3j-w8" name="実装工程">
        <mxGraphModel dx="1569" dy="934" grid="1" gridSize="10" guides="1" tooltips="1" connect="1" arrows="1" fold="1" page="1" pageScale="1" pageWidth="827" pageHeight="1169" math="0" shadow="0">
            <root>
                <mxCell id="0"/>
                <mxCell id="1" parent="0"/>
            </root>
        </mxGraphModel>
    </diagram>
</mxfile>